<?xml version="1.0" encoding="UTF-8"?><svg id="Lager_2" xmlns="http://www.w3.org/2000/svg" viewBox="0 0 1280 1280"><defs><style>.cls-1{fill:#fff;}.cls-2{fill:#1a1a1a;}</style></defs><circle class="cls-2" cx="640" cy="640" r="640"/><path class="cls-1" d="m364.27,678.42h87.23v26.13h-57.86v38.43h42.1v25.69h-42.1v50.09h-29.37v-140.34Z"/><path class="cls-1" d="m461.87,818.76v-140.34h77.3c14.25,0,19.86,8.21,19.86,24.61v49.88c0,13.39-4.1,20.51-14.03,22.46l14.68,43.4h-29.36l-13.6-42.32h-25.48v42.32h-29.37Zm68.23-67.58v-46.21h-38.86v46.21h38.86Z"/><path class="cls-1" d="m573.94,793.28v-91.12c0-15.76,8.42-23.75,22.45-23.75h55.71c16.84,0,22.89,9.93,22.89,27.42v86.36c0,15.33-8.85,26.56-25.05,26.56h-51.82c-13.6,0-24.18-7.99-24.18-25.48Zm20.73-148.12h25.48v23.97h-25.48v-23.97Zm50.96,147.25v-87.45h-42.54v87.45h42.54Zm-16.84-147.25h25.48v23.97h-25.48v-23.97Z"/><path class="cls-1" d="m787.48,792.42c0,16.19-8.42,26.34-24.61,26.34h-48.37c-13.82,0-24.4-7.99-24.4-25.69v-22.45h28.93v22.67h39.51v-23.75l-54.84-21.38c-10.15-4.53-13.6-9.93-13.6-22.24v-25.05c0-16.19,8.64-22.46,23.32-22.46h49.87c18.57,0,24.18,9.29,24.18,27.42v18.57h-28.93v-20.51h-39.51v20.94l55.06,20.95c10.58,4.53,13.39,9.72,13.39,22.89v23.75Z"/><path class="cls-1" d="m802.6,793.28v-91.12c0-15.76,8.42-23.75,22.46-23.75h55.7c16.84,0,22.89,9.93,22.89,27.42v86.36c0,15.33-8.85,26.56-25.05,26.56h-51.82c-13.6,0-24.18-7.99-24.18-25.48Zm20.73-148.12h25.48v23.97h-25.48v-23.97Zm50.96,147.25v-87.45h-42.54v87.45h42.54Zm-16.84-147.25h25.48v23.97h-25.48v-23.97Z"/><path class="cls-1" d="m369.99,990.01h2.38l22.89-112.06h30.66l-32.82,140.34h-44.26l-32.82-140.34h30.66l23.32,112.06Z"/><path class="cls-1" d="m493.5,991.09h-38.87l-5.61,27.2h-29.8l31.31-140.34h47.72l30.88,140.34h-30.01l-5.61-27.2Zm-33.9-24.83h28.93l-12.74-62.62h-3.24l-12.96,62.62Z"/><path class="cls-1" d="m539.93,877.95h29.37v114h57.43v26.34h-86.8v-140.34Z"/><path class="cls-1" d="m639.69,877.95h29.37v114h57.43v26.34h-86.8v-140.34Z"/><path class="cls-1" d="m739.44,877.95h85.72v25.48h-56.35v31.96h40.37v25.26h-40.37v32.17h56.35v25.48h-85.72v-140.34Z"/><path class="cls-1" d="m907,1018.29l-27.85-58.73c-5.83-12.31-11.23-28.29-15.76-43.83.65,15.55,1.08,30.66,1.08,39.08v63.48h-25.69v-140.34h36.06l28.72,63.48c6.48,14.46,12.52,31.31,17.06,46.42-.65-15.98-1.29-32.17-1.29-41.67v-68.23h25.91v140.34h-38.22Z"/><path class="cls-1" d="m526.55,168.6c-.26,7.31.83,14.51,1.82,21.72.81,5.9,1.43,11.82,2.21,17.72,1.19,9.07,2.42,18.13,3.68,27.19.45,3.26,1.06,6.49,1.56,9.54,11.66-5.04,23.09-9.96,34.51-14.91,2.28-.99,6.01-.36,7.42,1.76,1.4,2.1,3.37,3.02,5.53,3.94,13.31,5.64,26.61,11.3,39.88,17.03,2.22.96,4.36,2.15,6.4,3.46,2.21,1.42,2.87,2.91,2.31,4.29-.67,1.64-3.18,2.7-5.41,2.17-1.39-.33-2.73-.87-4.11-1.27-.62-.18-1.26-.26-2.03-.41-1.66,2.63-1.75,5.48-1.42,8.3.08.74,1.14,1.62,1.96,1.98,2.02.87,4.12,1.59,6.24,2.17,2.62.72,4.05,2.28,4.65,4.96,1.45,6.46,2.47,12.95,3.06,19.57.74,8.3.16,16.53-.23,24.78-.22,4.73-.74,9.45-1.28,14.16-.26,2.28.57,3.65,2.48,4.86,4.91,3.1,10.26,5.09,15.75,6.82,12.63,3.97,25.23,8.02,37.87,11.94,21.39,6.63,42.79,13.21,64.21,19.76,20.68,6.32,41.32,12.8,62.09,18.78,15.52,4.47,30.44,10.52,45.43,16.39,1.92.75,3.7,1.98,5.4,3.18,2.77,1.96,2.94,3.51.94,6.38-.18.25-.32.53-.53.88,1.84,2.53,4.66,3.7,7.11,5.35,1.28.86,2.68,1.57,3.86,2.55,2.23,1.86,1.91,3.78-.68,5.19-2.38,1.3-4.99,1.33-7.44.87-10.61-1.99-21.44-2.59-31.87-5.71-14.26-4.27-28.79-7.71-42.91-12.38-24.55-8.11-49.59-14.25-74.66-20.41-11.35-2.79-22.62-5.88-33.97-8.7-15.41-3.83-30.97-6.97-46.64-9.53-1.28-.21-2.6-.17-4.16-.26-.13,1.09-.3,1.92-.31,2.76-.03,10.16.21,20.33-.11,30.49-.4,12.78-.71,25.58-2.64,38.26-.22,1.43,0,3.59-1.86,3.88-2.21.34-4.58.17-6.78-.29-.63-.13-1.15-1.98-1.29-3.09-.69-5.49-.41-10.98-.17-16.5.48-10.8.7-21.62.77-32.43.04-6.28-.51-12.56-.63-18.84-.06-3.18.24-6.36.4-9.8-3.85-1.84-7.82-3.74-11.78-5.64-17.62-8.46-34.78-17.79-51.73-27.53-2.04-1.17-2.88-2.65-2.51-4.85.35-2.06.76-4.12,1.29-6.14,1.2-4.61,2.03-9.25,2.03-14.04-.01-15.69,0-31.37,0-47.06,0-.85-.12-1.7-.21-2.77-4.26,1.52-8.3,2.99-12.35,4.39-6.77,2.35-13.66,4.4-20.29,7.08-7.15,2.89-14.05,6.41-21.1,9.56-2,.89-2.69,2.4-2.92,4.39-.44,3.84-.39,7.65-.16,11.53.37,6.28.1,12.59.31,18.88.17,5.29.7,10.56.96,15.84.17,3.53.33,7.08.13,10.59-.09,1.55-.84,3.23-1.76,4.52-7.76,10.87-15.35,21.88-23.53,32.43-11.11,14.33-23.44,27.6-36.6,40.08-.94.9-1.99,1.69-2.97,2.52-1.39-.64-2.58-1.17-3.76-1.73-1.79-.85-2.05-1.6-1.17-3.38.29-.59.68-1.14,1.06-1.68,8.5-11.99,17.69-23.43,27.09-34.71,9.96-11.96,19.72-24.08,29.62-36.09,1.15-1.39,1.57-2.8,1.44-4.55-.5-7.04-1.12-14.08-1.32-21.13-.22-7.5-.18-15.03.04-22.53.16-5.39.81-10.77,1.21-16.16.12-1.66,1.08-2.6,2.49-3.19,1.52-.64,3.09-1.19,4.6-1.87,2.06-.94,2.34-1.68,2.08-3.92-.46-4.05-.82-8.1-1.25-12.15-.19-1.75-.45-3.5-.71-5.24-.26-1.74.49-2.57,2.16-3.09,4.73-1.48,9.42-3.09,14.11-4.72,1.14-.39,2.23-.97,3.28-1.56,1.82-1.02,2.49-2.47,2.19-4.68-.75-5.56-1.29-11.16-1.8-16.76-.66-7.37-1.64-14.68-3.51-21.84-.11-.41-.41-.76-.75-1.38-2.29,2.09-4.48,4.06-6.63,6.08-2.83,2.66-6.55,3.55-9.96,5.02-1.55.67-3.25.2-4.69-.86-2.81-2.08-5.94-2.15-9.16-1.25-2.02.57-3.98,1.33-6,1.88-4.37,1.19-6.67.21-8.64-3.86-1.86-3.84-2.7-7.88-1.77-12.18.39-1.82,1.17-3.36,2.62-4.46,2.11-1.59,4.18-3.32,6.51-4.51,5.1-2.61,10.3-5.05,15.56-7.33,6.66-2.88,12.77-6.52,17.97-11.61,2-1.96,3.64-4.14,4.54-6.83h9.28Zm296.81,243.93c.02-.16.04-.31.06-.47-.72-.26-1.44-.54-2.17-.77-17.52-5.3-34.97-10.87-52.6-15.82-16.36-4.59-32.67-9.29-48.84-14.5-12.38-3.99-24.89-7.62-37.38-11.26-8-2.34-16.49-2.93-24.1-6.75-2.35-1.18-4.92-1.94-7.4-2.86-5.06-1.88-10.03-4.07-15.21-5.51-4.65-1.29-8.42-3.72-11.98-6.74-1.26-1.07-1.77-2.39-1.81-4.07-.08-3.42-.4-6.82-.51-10.24-.09-2.87-.17-5.75.02-8.61.72-11.01,1.08-22.01.44-33.04-.1-1.76-.27-3.55-.74-5.23-.7-2.52-2.04-4.39-4.89-5.27-6.11-1.89-12.09-4.16-18.12-6.3-7.38-2.62-14.73-5.32-22.13-7.87-3-1.03-4.12-.17-4.3,2.93-.07,1.32-.02,2.65-.02,3.98.02,7.73.06,15.46.04,23.2-.01,4.75.04,9.51-.26,14.24-.42,6.6-1.14,13.17-1.77,19.75-.15,1.57.23,2.7,1.62,3.64,3.29,2.22,6.46,4.63,9.73,6.89,12.93,8.95,26.75,16.32,40.91,23.09,5.57,2.66,11.03,5.61,17.08,7.12,5.45,1.36,10.89,2.85,16.4,3.92,27.81,5.4,55.47,11.51,83,18.21,20.24,4.92,40.57,9.5,60.91,14,7.94,1.76,16.02,2.9,24.03,4.33Zm-246.16-171.34c-1.41,3.77-1,7.26-.6,10.76.39,3.42,2.22,5.52,5.51,6.64,8.54,2.89,17.03,5.93,25.54,8.88.8.28,1.66.36,2.61.56,1.74-2.92,1.01-5.94,1.12-8.84.06-1.58-.67-2.71-2.11-3.44-3.24-1.64-6.38-3.49-9.69-4.96-7.33-3.26-14.74-6.34-22.38-9.6Zm-39.29,26.79c4.67-1.64,8.86-2.97,12.94-4.58,3.37-1.33,6.65-2.9,9.89-4.53,1.77-.89,2.68-2.37,2.69-4.55,0-2.41.54-4.81.68-7.22.07-1.25-.2-2.53-.34-4.09-1.42.5-2.48.77-3.44,1.22-6.78,3.17-13.53,6.4-20.32,9.56-1.53.71-2.08,1.88-2.09,3.42-.02,3.4,0,6.81,0,10.76Zm-26.41,9.64c3.72-1.31,6.86-2.3,9.89-3.52,2.37-.95,2.68-1.55,2.41-4.04-.33-3.02-.76-6.04-2.15-8.5-2.98.68-5.74,1.3-8.51,1.93-2.4.55-2.87,1.21-2.71,3.62.13,2.08.11,4.17.28,6.24.11,1.26.45,2.5.79,4.27Zm-14.21-76.75c-1.65-4.01-2.34-4.48-5.84-3.06-3.67,1.49-7.24,3.26-10.75,5.1-3.03,1.59-3.38,3.88-1.22,7.19,6.12-2.58,12.61-4.49,17.81-9.22Zm19.73-15.17c-5.01,2.64-9.64,5.05-14.25,7.51-.99.53-1.36,1.46-.83,2.52.46.92,1.05,1.78,1.54,2.59,3.1-1,5.84-1.81,8.52-2.76,2.71-.95,4.5-2.65,4.43-5.81-.02-1.15.32-2.31.58-4.06Zm-17.05,20.72c-2.13,1.51-4.14,2.94-6.16,4.38,3.36,3.73,5.53,3.54,9.16-.8-.95-1.14-1.92-2.29-3-3.58Zm10.07-.02c5.08-2.64,7.35-5.07,7.23-7.84-3.1,1.75-6.09,3.44-9.21,5.2.82,1.09,1.34,1.78,1.98,2.65Z"/><path class="cls-1" d="m380.05,617.38c-1.09-.92-2.3-1.73-3.26-2.77-2.54-2.74-2.16-4.81,1.2-6.46,8.04-3.95,16.34-7.25,24.84-10.05,14.7-4.83,29.74-8.24,45-10.69,16.75-2.7,33.52-5.27,50.27-7.97,9.46-1.53,18.88-3.33,28.36-4.78,7.95-1.22,15.93-2.2,23.92-3.11,8.32-.94,16.66-1.74,25-2.47,4.61-.41,9.25-.58,13.87-.81,5.61-.28,11.23-.52,17.12-.79.07-.91.25-1.75.17-2.57-1.05-10-1.26-20.03-1.33-30.07-.02-3.53-.34-7.05-.36-10.57-.01-2.53.34-5.06.36-7.59.11-15.79.14-31.59.25-47.38.02-2.2.33-4.4.43-6.6.07-1.5.98-2.23,2.28-2.39,1.42-.17,2.88-.2,4.29-.06,2.91.29,3.7,1.33,3.74,4.34.22,20.31.44,40.62.69,60.93.16,12.58.37,25.16.57,37.74.01.87.08,1.74.14,2.95,1.21.2,2.36.56,3.5.55,13.69-.18,27.37-.33,41.06-.68,10.36-.27,20.72-.73,31.08-1.27,18.52-.96,37.06-1.54,55.6-1.13,11.35.25,22.68,1.12,34.02,1.81,6.6.4,13.2.91,19.79,1.49,5.6.49,11.18,1.16,16.77,1.72,5.15.52,10.31.98,15.46,1.55,6.68.74,13.35,1.54,20.02,2.35,5.91.71,11.81,1.47,17.71,2.2,7.54.94,15.12,1.66,22.62,2.86,8.91,1.42,17.83,2.95,26.62,4.98,8.8,2.04,17.47,4.65,26.14,7.22,8.67,2.57,17.26,5.43,25.9,8.1,2.1.65,3.7,1.79,5.27,3.97-2.82.43-5.28.25-7.73.04-13.54-1.17-26.72-4.46-40.08-6.72-6.4-1.08-12.89-1.71-19.36-2.25-3.09-.26-6.23.1-8.56-3.04-.66,1.17-1.11,1.95-1.62,2.85-4.25-.48-8.51-.94-12.76-1.46-6.67-.8-13.33-1.73-20.01-2.44-8.66-.92-17.33-1.67-25.99-2.51-9.65-.94-19.31-1.81-28.95-2.88-8.35-.93-16.73-1-25.11-1.21-7.82-.2-15.64-.75-23.46-1.09-7.16-.32-14.33-.6-21.49-.83-1.5-.05-2.8-.14-3.7-1.63-.33-.55-1.3-1.15-1.86-1.05-2.08.36-4.25-1.29-6.33.43-.42.35-1.92-.21-2.65-.73-1.1-.79-2.03-.93-3.35-.57-10.62,2.89-21.48,3.7-32.45,3.64-9.61-.05-19.22-.17-28.83.03-13.68.28-27.35.77-41.02,1.3-7.16.28-14.32.73-21.46,1.27-9.89.74-19.77,1.64-29.66,2.47-8.57.72-17.15,1.32-25.7,2.16-9.43.93-18.84,2.04-28.25,3.13-23.89,2.76-47.5,7.2-70.99,12.26-14.98,3.22-29.79,7.19-44.71,10.69-5.25,1.23-10.59,2.08-15.89,3.13-.42.08-.8.32-1.2.49h-5.97Z"/><path class="cls-1" d="m393.48,466.53c-5.74-4.75-12.21-6.29-19.29-5.23-6.51.98-12.55,3.4-18.42,6.26-5.76,2.8-11.5,5.63-17.22,8.51-2.66,1.34-5.44,1.78-8.36,1.49-4.3-.43-7.29-3.4-7.74-7.7-.09-.88-.11-1.76-.14-2.65-.09-3.67,1.88-6.69,5.42-7.66,2-.55,2.19-1.71,2.74-3.44,1.1-3.47-.37-7.24,1.85-10.56-1.07-1.13-2.11-2.1-3.01-3.19-.9-1.1-1.77-2.25-2.47-3.48-.97-1.72-.66-3.48.54-4.96,1.85-2.28,4.23-3.89,7.07-4.69,1.72-.48,3.3-.09,4.41,1.46,5.1,7.17,12.12,8.17,20.02,6.16,3.6-.91,8.43-3.51,11.33-5.91-2.48-1.63-4.45-1.62-9.22.03-.76-1.53-1.44-3.11-2.28-4.6-1.02-1.8-.85-3.39.61-4.81,2.22-2.15,4.48-4.25,6.73-6.36.53-.5,1.1-.97,1.46-1.96-1.04.13-2.11.17-3.12.42-2.25.56-4.44,1.34-6.7,1.81-1.7.36-3.51.7-5.2.48-3.34-.44-4.61-3.48-2.52-6.09,1.43-1.79,3.3-3.23,5.02-4.78,1.29-1.17,2.88-2.05,3.12-4.07.15-1.29,1.15-1.74,2.39-1.84,1.87-.15,3.72-.44,5.59-.59,3.89-.3,4.75-.93,5.98-4.53,2.08-6.09,3.18-12.38,3.92-18.74,1.12-9.63,2.18-19.27,3.29-28.9.1-.82.43-1.62.73-2.7,1.93.58,3.65.91,5.19,1.62,1.67.77,2.87,2.22,2.93,4.14.16,5.28.5,10.58.18,15.83-.48,7.8-1.48,15.57-2.22,23.36-.11,1.19-.02,2.4-.02,3.53,4.36-1.51,8.48-2.94,12.45-4.31,1.37,1.55,2.35,2.85,3.53,3.94,1.17,1.09,2.53,1.97,4.07,3.15-4.81,1.72-8.55,3.95-10.96,7.97q-4.04.55-7.18,6.41c1.2-.41,2.04-.49,2.63-.91,8.3-5.99,17.89-8.41,27.74-10.11,4.2-.72,8.02,2.48,8.08,6.7,0,.71-.17,1.73-.65,2.09-1.57,1.2-3.3,2.18-5,3.2-.22.13-.72.06-.93-.11-1.3-1.12-2.26-.14-3.21.52-4.26,2.97-8.49,5.97-12.73,8.97-6.12,4.32-12.24,8.65-18.45,13.04,2.09,1.07,4.66,1.24,7.16,1.61,2.29.33,4.6.58,6.9.78,3.39.3,5.95,1.97,7.2,5.05,1.44,3.55,4.06,5.13,7.55,6.21,5.71,1.77,11.22,4.1,15.38,8.71.52.57,1.06,1.13,1.52,1.75,2.54,3.41,2.65,5.25.09,8.65-1.14,1.52-1.68,3.04-1.56,4.89.07,1.08.01,2.17.01,3.38-.98.26-1.69.49-2.42.64-7.61,1.48-14.21,5.3-20.89,8.96-3.46,1.9-7.05,3.58-10.8,5.47-1.18-3.99,2.72-5.07,3.51-7.71-1.14-1.45-2.73-1.02-3.98-.76-10.57,2.19-21.18,4.27-31.66,6.87-7.42,1.85-14.21,5.43-20.64,9.58-3.51,2.27-6.99,4.6-10.45,6.88,1.21,3.59,2.4,4.53,5.78,3.9,5.95-1.11,11.97-2.09,17.76-3.8,7.92-2.34,15.7-2.01,23.51-.03,6.73,1.7,13.4,3.67,20.08,5.58,2.83.81,5.65.8,8.51.25,2.38-.46,4.77-.86,7.16-1.26,5.82-.99,10.18,1.04,13.07,6.08.44.77.69,1.65,1.2,2.36,1.71,2.38.72,4.46-.8,6.31-1.32,1.6-3.21,1.74-5.15,1.17-.74-.22-1.53-.31-2.22-.63-7.62-3.56-15.62-3.18-23.69-2.44-10.04.91-19.37,4.12-28.41,8.37-.49.23-.95.53-1.71.97,2.35,2.15,5.2,2.59,7.88,3.15,2.68.56,5.46.68,8.21.84,5.06.29,10.14.39,15.19.74,2,.14,3.71-.09,4.96-1.66,4.51,1.59,8.62,3.55,11.86,6.98.68.72,1.46,1.36,2.07,2.15,3.27,4.22,3.27,7.52-1.85,10.2-1.56.82-3.1,1.68-4.85,2.64-.71-.51-1.47-1.05-2.04-1.46-2.57,1.61-5.01,3.03-7.88,3.01-3.04-.02-5.3-1.97-7.71-3.92-1.47,1.59-3.17,1.28-5.11.92-4.67-.86-9.37-1.04-14.16-.51-6.71.75-13.49.72-20.02-1.31-3.62-1.12-6.9-.79-10.11,1.04-1.94,1.11-4.34,1.43-6.34,3.45,2.44.33,4.36.76,6.3.82,9.92.3,19.85.65,29.77.66,3.49,0,6.99-.83,10.47-1.42,3.75-.63,6.9.19,9.62,2.99,4.22,4.34,8.57,8.56,12.88,12.82,1.45,1.43,3.09,2.31,5.27,2.36,3,.08,5.89.84,8.45,2.54,2.1,1.39,2.59,2.34,2.13,4.35-.46,2-1.65,3.53-3.72,3.73-2.06.2-4.36.43-6.21-.26-7.46-2.77-14.81-1.32-22.2.02-7.27,1.31-14.48,2.93-21.78,3.98-4.78.69-9.67.81-14.51.81-4.28,0-5.6-1.54-5.99-5.82,0-.11-.01-.22-.03-.33-.77-6.39,1.97-9.48,9.03-10.36,3.17-.39,6.38-.4,9.56-.74,2.45-.26,4.17-1.66,5.5-4.35-1.76-.08-3.15-.17-4.54-.2-10.94-.25-21.81.68-32.68,1.89-9.75,1.09-19.55,1.87-29.4,1.46-.33-.01-.66-.02-.99-.03-4.86-.21-5.23-.67-4.29-4.97-1.14-1.96-2.41-3.67-3.17-5.57-1.13-2.83.01-4.86,2.97-5.36,3-.51,5.68-1.68,8.35-3.02,4.23-2.12,8.63-3.87,12.55-6.63,4.19-2.94,4.48-3.91,1.31-7.59.92-1.49,1.73-2.98,2.72-4.36.68-.95,1.44-2.05,2.44-2.54,4.84-2.39,9.71-4.73,14.68-6.82,4.37-1.83,8.91-3.25,13.33-4.97,1.15-.45,2.04-.43,3.08.21,2.97,1.81,6.13,1.62,9.25.5,3.97-1.42,7.39-3.82,11.11-6.3-2.58-2.6-5.61-3.32-8.65-3.38-2.83-.05-5.74.31-8.49,1.01-8.47,2.17-17.04,3.64-25.76,3.98-4.16.16-8.38-.2-12.18-2.4-4.1-2.38-5.43-5.48-4.09-9.99.22-.74.58-1.45.7-2.21.87-5.31,4.68-7.31,9.36-7.78,2.93-.29,5.31-1.2,7.43-3.13,2.09-1.89,4.38-3.18,7.41-3.11,3.32.08,5.65-2.15,7.22-4.65,5.75-9.13,14.62-12.77,24.62-14.38,4.77-.77,9.64-.96,14.47-1.42.85-.08,1.7-.18,2.55-.27Z"/><path class="cls-1" d="m658.78,453.82c8.71.17,17.43.16,26.14.56,9.69.45,19.37,1.13,29.03,1.97,9.88.86,19.72,2.07,29.58,3.07,7.45.76,14.92,1.38,22.37,2.17,6.35.67,12.69,1.45,19.03,2.27,7.43.95,14.85,1.95,22.27,3.01,6.11.87,12.21,1.81,18.29,2.82,9.89,1.64,19.75,3.44,29.65,5.04,6.51,1.05,12.44,3.73,18.45,6.19.49.2,1.14.51,1.31.93,1,2.43-.04,4.8-.58,7.1-.36,1.54-2.1,1.86-3.56,1.88-1.53.02-3.12,0-4.59-.36-13.49-3.36-27.26-5.24-40.93-7.61-10.42-1.8-20.86-3.53-31.32-5.02-6.98-1-14.01-1.61-21.03-2.25-12.07-1.09-24.17-1.78-36.15-3.77-2.5-.42-5.04-.61-7.57-.76-9.03-.53-18.07-.87-27.08-1.52-9.12-.66-18.24-1.4-27.32-2.49-9.07-1.09-18.08-2.68-27.12-4.04-.33-.05-.66-.1-.98-.17-4.33-.95-5.46-4.4-2.45-7.74.5-.56,1.53-.89,2.32-.9,4.07-.09,8.15-.04,12.22-.04v-.31Z"/><path class="cls-1" d="m457.53,569.05c-.23-6.51-.64-12.45-.6-18.38.08-10.14.44-20.28.69-30.42.21-8.38.47-16.75.65-25.13.26-12.46.45-24.92.68-37.38.13-7.27.33-14.55.43-21.82.04-3.17-.06-3.19-3.15-3.97-1.17-.3-2.39-.52-3.48-1.01-1.61-.72-2.13-2.02-1.93-3.82.18-1.58,1.2-2.44,2.58-2.62,5.78-.72,11.43-.15,16.81,2.24,1.21.54,1.68,1.44,1.64,2.9-.18,6.29-.04,12.58-.31,18.87-.47,10.9-1.2,21.78-1.74,32.67-.19,3.75-.12,7.5-.21,11.25-.23,8.93-.48,17.86-.74,26.78-.17,5.83-.27,11.68-.61,17.5-.57,9.9-1.28,19.79-1.98,29.68-.15,2.06-.62,2.51-2.63,2.63-1.84.11-3.7.02-6.09.02Z"/><path class="cls-1" d="m559.61,472.04c-3.51,1.37-6.97,2.77-10.46,4.08-5.78,2.17-11.56,4.36-17.4,6.38-1.86.65-3.15,1.62-3.48,3.54-.81,4.66-1.95,9.31-2.21,14-.6,10.81.42,21.61,1.02,32.4.28,5.04-.23,10.13-.55,15.19-.05.83-.89,1.65-1.47,2.4-.25.32-.75.45-1.15.63-4.75,2.24-5.93,1.57-5.95-3.56-.06-12.81-.2-25.63-.05-38.44.07-5.83.76-11.66,1.12-17.49.14-2.31.03-4.64.21-6.95.17-2.19.5-4.38.91-6.54.58-3.01,2.43-4.82,5.47-5.49,3.12-.69,6.25-1.41,9.31-2.3,5.4-1.57,10.75-3.29,16.13-4.95.42-.13.84-.28,1.25-.42,5.69-1.94,7.37-.74,7.47,5.35.01.65-.1,1.3-.17,2.14Z"/><path class="cls-1" d="m556.31,373.62c.11,1.19.25,2.04.26,2.9.05,3.44-.21,3.62-3.56,4.29-10.91,2.18-21.78,4.53-32.71,6.58-3.89.73-5.66,2.89-6.26,6.55-1.28,7.71-2.67,15.41-3.97,23.11-.66,3.92-3.4,5.52-7.09,4.05-1.34-.53-1.81-1.54-1.65-2.89.49-4.15.82-8.34,1.55-12.45,1.1-6.18,2.48-12.31,3.75-18.45.55-2.63,2.23-4.14,4.73-5.01,7.82-2.73,15.81-4.84,23.97-6.24,5.2-.9,10.43-1.69,15.66-2.4,1.69-.23,3.44-.04,5.32-.04Z"/><path class="cls-1" d="m519.34,426.63c-1.9-2.32-1.66-4.8-1.39-7.17.09-.81.99-1.68,1.75-2.21.88-.62,1.97-1.01,3.02-1.31,12.82-3.62,25.66-7.21,38.49-10.81,3.08-.86,6.15-1.73,9.23-2.59.64-.18,1.27-.37,1.92-.49,3.75-.74,4.97.07,5.81,3.82.43,1.93.12,2.64-1.76,3.27-2.09.7-4.24,1.2-6.34,1.86-14.93,4.69-29.85,9.41-44.78,14.09-1.97.62-4,1.04-5.95,1.54Z"/><path class="cls-1" d="m516.08,323.43c-.15-1.57-.32-3.19-.46-4.8-.51-5.72-.64-11.42.12-17.15.32-2.42,1.31-4.26,3.39-5.32,2.93-1.48,5.88-3.14,9.03-3.97,4.98-1.31,10.12-2.04,15.21-2.93,1.06-.19,2.17-.03,3.43-.03.33.93.75,1.71.87,2.53.45,2.97-.05,3.38-2.86,4.45-6.06,2.32-11.97,5.09-18.1,7.21-3.25,1.13-4.53,2.93-4.51,6.18.02,3.08-.14,6.17-.25,9.25-.13,3.41-1.77,4.74-5.87,4.56Z"/><path class="cls-1" d="m871.01,509.36c-.36,5.83-.72,11.67-1.11,17.5-.05.77-.22,1.53-.4,2.28-.68,2.98-3.26,3.96-5.7,2.13-2.2-1.65-2.71-4.11-2.31-6.54.61-3.68.35-7.2-.52-10.8-1.41-5.87-1.18-11.82-.34-17.76.27-1.91,1.57-2.94,3.28-3.3,1.85-.39,3.94-.57,5.1,1.32.83,1.35,1.47,3,1.57,4.56.23,3.52.07,7.06.07,10.59.12,0,.23,0,.35.01Z"/><path class="cls-1" d="m406.15,495.85c-2.23.37-4.05.87-5.87.92-4.84.13-9.69.21-14.53.03-5.13-.19-10.06,1.04-15.09,1.55-2.58.26-5.23-.06-7.84-.27-1.61-.13-2.13-1.31-2.17-2.82-.08-3.28,2.22-5.92,5.7-5.99,4.4-.1,8.83-.13,13.22.25,7.45.65,14.87,1.68,22.31,2.45,2.15.22,3.35,1.32,4.28,3.87Z"/><path class="cls-1" d="m559.74,378.11c.63-.05,1.49-.2,2.34-.17,2.42.11,2.97.54,2.95,2.96-.01,2.74-.24,5.49-.53,8.22-.26,2.4-.82,4.78-1.11,7.18-.17,1.45-.81,2.22-2.26,2.32-1.81.13-3.86-.84-3.94-2.25-.18-2.96-.37-5.98.03-8.9.42-2.99,1.55-5.89,2.52-9.37Z"/></svg>
